<svg version="1.1" viewBox="0.0 0.0 153.6010498687664 49.92125984251968" fill="none" stroke="none" stroke-linecap="square" stroke-miterlimit="10" xmlns:xlink="http://www.w3.org/1999/xlink" xmlns="http://www.w3.org/2000/svg"><clipPath id="p.0"><path d="m0 0l153.60104 0l0 49.92126l-153.60104 0l0 -49.92126z" clip-rule="nonzero"/></clipPath><g clip-path="url(#p.0)"><path fill="#000000" fill-opacity="0.0" d="m0 0l153.60104 0l0 49.92126l-153.60104 0z" fill-rule="evenodd"/><path fill="#000000" fill-opacity="0.0" d="m-7.7059503 -15.317585l181.95276 0l0 31.086613l-181.95276 0z" fill-rule="evenodd"/><path fill="#3c78d8" d="m17.7628 49.02804q-3.796875 0 -6.03125 -0.5625038q-2.234375 -0.546875 -3.3125 -1.75q-1.0781255 -1.1875 -1.3906255 -3.15625q-0.3125 -1.96875 -0.3125 -4.8125l0 -3.828125q0 -3.453125 -0.171875 -5.03125q-0.15625 -1.59375 -0.8125 -2.046875q-0.640625 -0.46875 -2.1406248 -0.46875l0 -5.65625q1.4999998 0 2.1406248 -0.453125q0.65625 -0.453125 0.8125 -2.0625q0.171875 -1.609375 0.171875 -5.015625l0 -3.84375q0 -2.8750005 0.3125 -4.8437505q0.3125 -1.9687498 1.3906255 -3.1718748q1.078125 -1.2031251 3.3125 -1.75q2.234375 -0.5625 6.03125 -0.5625l0 5.234375q-1.25 0 -2.015625 0.203125q-0.765625 0.1875 -1.15625 0.734375q-0.390625 0.546875 -0.53125 1.65625q-0.140625 1.1093755 -0.140625 2.9375005l0 4.3125q0 4.078125 -0.828125 6.484375q-0.8125 2.390625 -3.296875 2.96875q2.484375 0.578125 3.296875 2.953125q0.828125 2.375 0.828125 6.453125l0 4.375q0 1.828125 0.140625 2.90625q0.140625 1.078125 0.53125 1.625q0.390625 0.546875 1.15625 0.734375q0.765625 0.203125 2.015625 0.203125l0 5.234379z" fill-rule="nonzero"/><path fill="#3c78d8" d="m27.730467 40.246788q-2.84375 0 -5.234375 -1.0625q-2.375 -1.0625 -3.890625 -3.015625l3.59375 -4.328125q2.28125 3.078125 5.203125 3.078125q3.96875 0 3.96875 -4.640625l0 -13.3125l-9.84375 0l0 -5.203125l16.281248 0l0 18.15625q0 5.15625 -2.5625 7.75q-2.5625 2.578125 -7.515623 2.578125zm25.671232 0q-3.3125 0 -6.421875 -0.890625q-3.09375 -0.90625 -4.96875 -2.359375l2.1875 -4.875q1.8125 1.328125 4.28125 2.125q2.484375 0.796875 4.96875 0.796875q2.75 0 4.0625 -0.8125q1.328125 -0.828125 1.328125 -2.1875q0 -1.0 -0.78125 -1.65625q-0.765625 -0.671875 -2.0 -1.0625q-1.21875 -0.40625 -3.296875 -0.875q-3.1875 -0.765625 -5.234375 -1.515625q-2.046875 -0.765625 -3.5 -2.4375q-1.453125 -1.6875 -1.453125 -4.5q0 -2.4375 1.3125 -4.40625q1.3125 -1.984375 3.96875 -3.140625q2.671875 -1.171875 6.515625 -1.171875q2.671875 0 5.234375 0.640625q2.5625 0.640625 4.484379 1.84375l-2.0000038 4.921875q-3.890625 -2.203125 -7.765625 -2.203125q-2.71875 0 -4.015625 0.890625q-1.296875 0.875 -1.296875 2.3125q0 1.4375 1.5 2.140625q1.5 0.703125 4.578125 1.375q3.203125 0.765625 5.234375 1.53125q2.046875 0.75 3.5 2.390625q1.4687538 1.640625 1.4687538 4.4375q0 2.40625 -1.3437538 4.390625q-1.34375 1.96875 -4.03125 3.140625q-2.671875 1.15625 -6.515625 1.15625zm29.879353 0q-4.359375 0 -7.859375 -1.875q-3.5 -1.890625 -5.484375 -5.1875q-1.96875 -3.296875 -1.96875 -7.421875q0 -4.125 1.96875 -7.421875q1.984375 -3.296875 5.484375 -5.171875q3.5 -1.890625 7.859375 -1.890625q4.359375 0 7.84375 1.890625q3.484375 1.875 5.484375 5.171875q2.0 3.296875 2.0 7.421875q0 4.125 -2.0 7.421875q-2.0 3.296875 -5.484375 5.1875q-3.484375 1.875 -7.84375 1.875zm0 -5.53125q2.484375 0 4.484375 -1.125q2.0 -1.140625 3.140625 -3.1875q1.140625 -2.046875 1.140625 -4.640625q0 -2.59375 -1.140625 -4.640625q-1.140625 -2.046875 -3.140625 -3.171875q-2.0 -1.140625 -4.484375 -1.140625q-2.46875 0 -4.46875 1.140625q-2.0 1.125 -3.140625 3.171875q-1.140625 2.046875 -1.140625 4.640625q0 2.59375 1.140625 4.640625q1.140625 2.046875 3.140625 3.1875q2.0 1.125 4.46875 1.125zm45.884964 -22.953125l0 28.0l-5.3125 0l-13.96875 -17.0l0 17.0l-6.40625 0l0 -28.0l5.375 0l13.90625 17.0l0 -17.0l6.40625 0z" fill-rule="nonzero"/><path fill="#3c78d8" d="m134.26724 49.02804l0 -5.234379q1.25 0 2.015625 -0.203125q0.765625 -0.1875 1.140625 -0.734375q0.390625 -0.546875 0.53125 -1.625q0.140625 -1.078125 0.140625 -2.90625l0 -4.375q0 -4.078125 0.84375 -6.453125q0.84375 -2.375 3.34375 -2.953125q-2.5 -0.578125 -3.34375 -2.96875q-0.84375 -2.40625 -0.84375 -6.484375l0 -4.3125q0 -1.828125 -0.140625 -2.9375005q-0.140625 -1.109375 -0.53125 -1.65625q-0.375 -0.546875 -1.140625 -0.734375q-0.765625 -0.203125 -2.015625 -0.203125l0 -5.234375q3.78125 0 6.015625 0.5625q2.234375 0.54687494 3.3125 1.75q1.078125 1.203125 1.390625 3.1718748q0.3125 1.96875 0.3125 4.8437505l0 3.84375q0 3.40625 0.171875 5.015625q0.171875 1.609375 0.8125 2.0625q0.65625 0.453125 2.140625 0.453125l0 5.65625q-1.484375 0 -2.140625 0.46875q-0.640625 0.453125 -0.8125 2.046875q-0.171875 1.578125 -0.171875 5.03125l0 3.828125q0 2.84375 -0.3125 4.8125q-0.3125 1.96875 -1.390625 3.15625q-1.078125 1.203125 -3.3125 1.75q-2.234375 0.5625038 -6.015625 0.5625038z" fill-rule="nonzero"/></g></svg>