<svg version="1.1" viewBox="0.0 0.0 332.3359580052493 458.9396325459318" fill="none" stroke="none" stroke-linecap="square" stroke-miterlimit="10" xmlns:xlink="http://www.w3.org/1999/xlink" xmlns="http://www.w3.org/2000/svg"><clipPath id="p.0"><path d="m0 0l332.33597 0l0 458.93964l-332.33597 0l0 -458.93964z" clip-rule="nonzero"/></clipPath><g clip-path="url(#p.0)"><path fill="#000000" fill-opacity="0.0" d="m0 0l332.33597 0l0 458.93964l-332.33597 0z" fill-rule="evenodd"/><path fill="#000000" fill-opacity="0.0" d="m14.3359585 14.989501l182.9224 0l120.79414 120.79414l0 308.9381l-303.71652 0z" fill-rule="evenodd"/><path stroke="#4a86e8" stroke-width="24.0" stroke-linejoin="round" stroke-linecap="butt" d="m14.3359585 14.989501l182.9224 0l120.79414 120.79414l0 308.9381l-303.71652 0z" fill-rule="evenodd"/><path fill="#000000" fill-opacity="0.0" d="m25.17323 225.71654l339.3386 0l0 174.58269l-339.3386 0z" fill-rule="evenodd"/><path fill="#3c78d8" d="m54.532604 328.03278q-6.828125 0 -12.546875 -2.546875q-5.703125 -2.546875 -9.34375 -7.25l8.640625 -10.375q5.46875 7.40625 12.46875 7.40625q9.515625 0 9.515625 -11.140625l0 -31.96875l-23.625 0l0 -12.484375l39.07812 0l0 43.59375q0 12.375 -6.15625 18.578125q-6.140625 6.1875 -18.031246 6.1875zm61.62347 0q-7.96875 0 -15.40625 -2.15625q-7.4375 -2.171875 -11.953125 -5.625l5.28125 -11.71875q4.3125 3.171875 10.265625 5.09375q5.953125 1.921875 11.90625 1.921875q6.625 0 9.796875 -1.96875q3.1718826 -1.96875 3.1718826 -5.234375q0 -2.390625 -1.8750076 -3.96875q-1.875 -1.59375 -4.8125 -2.546875q-2.921875 -0.96875 -7.90625 -2.125q-7.6875 -1.8125 -12.578125 -3.640625q-4.890625 -1.828125 -8.40625 -5.859375q-3.5 -4.03125 -3.5 -10.75q0 -5.859375 3.171875 -10.609375q3.171875 -4.75 9.546875 -7.53125q6.390625 -2.796875 15.609375 -2.796875q6.421875 0 12.562508 1.546875q6.15625 1.53125 10.765625 4.40625l-4.8125 11.8125q-9.312508 -5.28125 -18.625008 -5.28125q-6.515625 0 -9.640625 2.125q-3.125 2.109375 -3.125 5.5625q0 3.453125 3.59375 5.140625q3.609375 1.671875 11.0 3.296875q7.6875 1.828125 12.578133 3.65625q4.890625 1.828125 8.390625 5.765625q3.515625 3.921875 3.515625 10.640625q0 5.765625 -3.21875 10.515625q-3.21875 4.75 -9.65625 7.546875q-6.4218826 2.78125 -15.640633 2.78125zm71.71673 0q-10.46875 0 -18.875 -4.515625q-8.390625 -4.515625 -13.140625 -12.4375q-4.75 -7.921875 -4.75 -17.796875q0 -9.890625 4.75 -17.8125q4.75 -7.921875 13.140625 -12.4375q8.40625 -4.515625 18.875 -4.515625q10.453125 0 18.8125 4.515625q8.359375 4.515625 13.15625 12.4375q4.796875 7.921875 4.796875 17.8125q0 9.875 -4.796875 17.796875q-4.796875 7.921875 -13.15625 12.4375q-8.359375 4.515625 -18.8125 4.515625zm0 -13.25q5.953125 0 10.75 -2.734375q4.796875 -2.734375 7.53125 -7.625q2.734375 -4.90625 2.734375 -11.140625q0 -6.25 -2.734375 -11.140625q-2.734375 -4.890625 -7.53125 -7.625q-4.796875 -2.75 -10.75 -2.75q-5.953125 0 -10.765625 2.75q-4.796875 2.734375 -7.53125 7.625q-2.734375 4.890625 -2.734375 11.140625q0 6.234375 2.734375 11.140625q2.734375 4.890625 7.53125 7.625q4.8125 2.734375 10.765625 2.734375zm110.10205 -55.109375l0 67.203125l-12.765625 0l-33.49997 -40.796875l0 40.796875l-15.359375 0l0 -67.203125l12.859375 0l33.40622 40.796875l0 -40.796875l15.359375 0z" fill-rule="nonzero"/><path fill="#000000" fill-opacity="0.0" d="m182.71391 14.217848l0 154.96063" fill-rule="evenodd"/><path stroke="#4a86e8" stroke-width="24.0" stroke-linejoin="round" stroke-linecap="butt" d="m182.71391 14.217848l0 154.96063" fill-rule="evenodd"/><path fill="#000000" fill-opacity="0.0" d="m174.45145 157.03674l133.25983 0" fill-rule="evenodd"/><path stroke="#4a86e8" stroke-width="24.0" stroke-linejoin="round" stroke-linecap="butt" d="m174.45145 157.03674l133.25983 0" fill-rule="evenodd"/></g></svg>